<svg width="228" height="50" viewBox="0 0 228 50" fill="none" xmlns="http://www.w3.org/2000/svg">
<path d="M4.238 38.043H5.954V47H4.238V38.043ZM0.208 37.25H9.984V38.758H0.208V37.25ZM16.6597 47.182C15.8017 47.182 15.039 47.0217 14.3717 46.701C13.7044 46.3717 13.18 45.9167 12.7987 45.336C12.4174 44.7553 12.2267 44.0793 12.2267 43.308C12.2267 42.5453 12.4044 41.878 12.7597 41.306C13.1237 40.7253 13.622 40.2747 14.2547 39.954C14.896 39.6247 15.6284 39.46 16.4517 39.46C17.275 39.46 17.9857 39.6463 18.5837 40.019C19.1904 40.383 19.6584 40.8987 19.9877 41.566C20.317 42.2333 20.4817 43.0177 20.4817 43.919H13.5527V42.632H19.6367L18.7917 43.113C18.7657 42.6277 18.6487 42.2117 18.4407 41.865C18.2414 41.5183 17.9684 41.254 17.6217 41.072C17.2837 40.8813 16.8807 40.786 16.4127 40.786C15.9187 40.786 15.4854 40.8857 15.1127 41.085C14.7487 41.2843 14.4627 41.566 14.2547 41.93C14.0467 42.2853 13.9427 42.71 13.9427 43.204C13.9427 43.75 14.064 44.2223 14.3067 44.621C14.558 45.0197 14.909 45.3273 15.3597 45.544C15.819 45.752 16.3607 45.856 16.9847 45.856C17.548 45.856 18.1244 45.7693 18.7137 45.596C19.303 45.414 19.823 45.1627 20.2737 44.842V46.064C19.823 46.4107 19.2727 46.6837 18.6227 46.883C17.9814 47.0823 17.327 47.182 16.6597 47.182ZM33.8972 44.101C33.8105 44.7077 33.5722 45.245 33.1822 45.713C32.7922 46.1723 32.2939 46.532 31.6872 46.792C31.0805 47.052 30.4045 47.182 29.6592 47.182C28.8099 47.182 28.0602 47.0217 27.4102 46.701C26.7689 46.3717 26.2662 45.9167 25.9022 45.336C25.5382 44.7553 25.3562 44.0837 25.3562 43.321C25.3562 42.5583 25.5382 41.8867 25.9022 41.306C26.2662 40.7253 26.7689 40.2747 27.4102 39.954C28.0602 39.6247 28.8099 39.46 29.6592 39.46C30.4045 39.46 31.0805 39.59 31.6872 39.85C32.2939 40.11 32.7922 40.474 33.1822 40.942C33.5722 41.4013 33.8105 41.9387 33.8972 42.554H32.1942C32.0729 41.9993 31.7825 41.566 31.3232 41.254C30.8639 40.942 30.3092 40.786 29.6592 40.786C29.1392 40.786 28.6842 40.89 28.2942 41.098C27.9042 41.2973 27.6009 41.5877 27.3842 41.969C27.1762 42.3417 27.0722 42.7923 27.0722 43.321C27.0722 43.841 27.1762 44.2917 27.3842 44.673C27.6009 45.0543 27.9042 45.349 28.2942 45.557C28.6842 45.7563 29.1392 45.856 29.6592 45.856C30.3179 45.856 30.8769 45.6957 31.3362 45.375C31.7955 45.0543 32.0815 44.6297 32.1942 44.101H33.8972ZM39.0794 36.99H40.7694V47H39.0794V36.99ZM43.6944 39.46C44.3878 39.46 44.9771 39.5987 45.4624 39.876C45.9478 40.1533 46.3161 40.552 46.5674 41.072C46.8274 41.5833 46.9574 42.203 46.9574 42.931V47H45.2674V43.204C45.2674 42.4327 45.0854 41.852 44.7214 41.462C44.3661 41.0633 43.8418 40.864 43.1484 40.864C42.6718 40.864 42.2514 40.9723 41.8874 41.189C41.5321 41.397 41.2548 41.6917 41.0554 42.073C40.8648 42.4543 40.7694 42.9007 40.7694 43.412L40.1714 43.087C40.2494 42.3243 40.4488 41.6743 40.7694 41.137C41.0901 40.5997 41.5018 40.188 42.0044 39.902C42.5071 39.6073 43.0704 39.46 43.6944 39.46ZM52.2007 39.642H53.8907L54.3327 42.294V47H52.6427V42.047L52.2007 39.642ZM57.2577 39.46C57.951 39.46 58.5404 39.5987 59.0257 39.876C59.511 40.1533 59.8794 40.552 60.1307 41.072C60.3907 41.5833 60.5207 42.203 60.5207 42.931V47H58.8307V43.204C58.8307 42.4327 58.6487 41.852 58.2847 41.462C57.9294 41.0633 57.405 40.864 56.7117 40.864C56.235 40.864 55.8147 40.9723 55.4507 41.189C55.0954 41.397 54.818 41.6917 54.6187 42.073C54.428 42.4543 54.3327 42.9007 54.3327 43.412L53.7347 43.087C53.8127 42.3243 54.012 41.6743 54.3327 41.137C54.6534 40.5997 55.065 40.188 55.5677 39.902C56.0704 39.6073 56.6337 39.46 57.2577 39.46ZM70.1818 47.182C69.2892 47.182 68.5048 47.0217 67.8288 46.701C67.1615 46.3717 66.6372 45.9167 66.2558 45.336C65.8832 44.7553 65.6968 44.0837 65.6968 43.321C65.6968 42.5497 65.8832 41.878 66.2558 41.306C66.6372 40.7253 67.1615 40.2747 67.8288 39.954C68.5048 39.6247 69.2892 39.46 70.1818 39.46C71.0745 39.46 71.8545 39.6247 72.5218 39.954C73.1978 40.2747 73.7222 40.7253 74.0948 41.306C74.4762 41.878 74.6668 42.5497 74.6668 43.321C74.6668 44.0837 74.4762 44.7553 74.0948 45.336C73.7222 45.9167 73.1978 46.3717 72.5218 46.701C71.8545 47.0217 71.0745 47.182 70.1818 47.182ZM70.1818 45.856C70.7538 45.856 71.2435 45.752 71.6508 45.544C72.0668 45.336 72.3875 45.0457 72.6128 44.673C72.8382 44.2917 72.9508 43.841 72.9508 43.321C72.9508 42.801 72.8382 42.3547 72.6128 41.982C72.3875 41.6007 72.0668 41.306 71.6508 41.098C71.2435 40.89 70.7538 40.786 70.1818 40.786C69.6185 40.786 69.1288 40.89 68.7128 41.098C68.2968 41.306 67.9762 41.6007 67.7508 41.982C67.5255 42.3547 67.4128 42.801 67.4128 43.321C67.4128 43.841 67.5255 44.2917 67.7508 44.673C67.9762 45.0457 68.2968 45.336 68.7128 45.544C69.1288 45.752 69.6185 45.856 70.1818 45.856ZM79.9406 36.99H81.6306V47H79.9406V36.99ZM91.3881 47.182C90.4954 47.182 89.7111 47.0217 89.0351 46.701C88.3677 46.3717 87.8434 45.9167 87.4621 45.336C87.0894 44.7553 86.9031 44.0837 86.9031 43.321C86.9031 42.5497 87.0894 41.878 87.4621 41.306C87.8434 40.7253 88.3677 40.2747 89.0351 39.954C89.7111 39.6247 90.4954 39.46 91.3881 39.46C92.2807 39.46 93.0607 39.6247 93.7281 39.954C94.4041 40.2747 94.9284 40.7253 95.3011 41.306C95.6824 41.878 95.8731 42.5497 95.8731 43.321C95.8731 44.0837 95.6824 44.7553 95.3011 45.336C94.9284 45.9167 94.4041 46.3717 93.7281 46.701C93.0607 47.0217 92.2807 47.182 91.3881 47.182ZM91.3881 45.856C91.9601 45.856 92.4497 45.752 92.8571 45.544C93.2731 45.336 93.5937 45.0457 93.8191 44.673C94.0444 44.2917 94.1571 43.841 94.1571 43.321C94.1571 42.801 94.0444 42.3547 93.8191 41.982C93.5937 41.6007 93.2731 41.306 92.8571 41.098C92.4497 40.89 91.9601 40.786 91.3881 40.786C90.8247 40.786 90.3351 40.89 89.9191 41.098C89.5031 41.306 89.1824 41.6007 88.9571 41.982C88.7317 42.3547 88.6191 42.801 88.6191 43.321C88.6191 43.841 88.7317 44.2917 88.9571 44.673C89.1824 45.0457 89.5031 45.336 89.9191 45.544C90.3351 45.752 90.8247 45.856 91.3881 45.856ZM107.829 45.193V43.893L107.894 43.659V42.242L107.829 41.982V39.642H109.519V45.037C109.519 45.9817 109.319 46.7703 108.921 47.403C108.522 48.0443 107.976 48.5253 107.283 48.846C106.589 49.1667 105.792 49.327 104.891 49.327C104.232 49.327 103.625 49.2403 103.071 49.067C102.516 48.8937 101.979 48.6293 101.459 48.274V46.87C101.987 47.286 102.533 47.5763 103.097 47.741C103.66 47.9143 104.223 48.001 104.787 48.001C105.775 48.001 106.529 47.7583 107.049 47.273C107.569 46.7877 107.829 46.0943 107.829 45.193ZM104.293 46.428C103.617 46.428 103.01 46.285 102.473 45.999C101.935 45.7043 101.511 45.297 101.199 44.777C100.887 44.257 100.731 43.646 100.731 42.944C100.731 42.242 100.887 41.631 101.199 41.111C101.511 40.591 101.935 40.188 102.473 39.902C103.01 39.6073 103.617 39.46 104.293 39.46C104.795 39.46 105.259 39.538 105.684 39.694C106.117 39.85 106.503 40.058 106.841 40.318C107.187 40.5693 107.478 40.851 107.712 41.163C107.954 41.4663 108.141 41.7783 108.271 42.099C108.401 42.411 108.466 42.697 108.466 42.957C108.466 43.295 108.366 43.6677 108.167 44.075C107.967 44.4737 107.681 44.8507 107.309 45.206C106.945 45.5613 106.507 45.856 105.996 46.09C105.484 46.3153 104.917 46.428 104.293 46.428ZM104.813 45.18C105.428 45.18 105.991 45.0023 106.503 44.647C107.023 44.2917 107.486 43.724 107.894 42.944C107.486 42.1467 107.023 41.5747 106.503 41.228C105.991 40.8727 105.428 40.695 104.813 40.695C104.31 40.695 103.881 40.7903 103.526 40.981C103.17 41.1717 102.897 41.436 102.707 41.774C102.525 42.112 102.434 42.502 102.434 42.944C102.434 43.3773 102.525 43.763 102.707 44.101C102.897 44.439 103.17 44.7033 103.526 44.894C103.881 45.0847 104.31 45.18 104.813 45.18ZM116.946 49.327C116.512 49.327 116.118 49.2707 115.763 49.158C115.416 49.054 115.091 48.9067 114.788 48.716V47.429C115.117 47.637 115.429 47.7887 115.724 47.884C116.027 47.9793 116.365 48.027 116.738 48.027C117.093 48.027 117.409 47.9447 117.687 47.78C117.964 47.624 118.194 47.3467 118.376 46.948L121.691 39.642H123.485L119.676 47.52C119.468 47.9533 119.221 48.3 118.935 48.56C118.657 48.8287 118.35 49.0237 118.012 49.145C117.682 49.2663 117.327 49.327 116.946 49.327ZM117.791 46.766L114.411 39.642H116.27L119.468 46.766H117.791ZM136.292 44.764V43.347H143.104V44.764H136.292ZM140.816 37.25L145.496 47H143.663L139.412 37.9H140.075L135.824 47H133.991L138.671 37.25H140.816ZM156.703 45.193V43.893L156.768 43.659V42.242L156.703 41.982V39.642H158.393V45.037C158.393 45.9817 158.194 46.7703 157.795 47.403C157.397 48.0443 156.851 48.5253 156.157 48.846C155.464 49.1667 154.667 49.327 153.765 49.327C153.107 49.327 152.5 49.2403 151.945 49.067C151.391 48.8937 150.853 48.6293 150.333 48.274V46.87C150.862 47.286 151.408 47.5763 151.971 47.741C152.535 47.9143 153.098 48.001 153.661 48.001C154.649 48.001 155.403 47.7583 155.923 47.273C156.443 46.7877 156.703 46.0943 156.703 45.193ZM153.167 46.428C152.491 46.428 151.885 46.285 151.347 45.999C150.81 45.7043 150.385 45.297 150.073 44.777C149.761 44.257 149.605 43.646 149.605 42.944C149.605 42.242 149.761 41.631 150.073 41.111C150.385 40.591 150.81 40.188 151.347 39.902C151.885 39.6073 152.491 39.46 153.167 39.46C153.67 39.46 154.134 39.538 154.558 39.694C154.992 39.85 155.377 40.058 155.715 40.318C156.062 40.5693 156.352 40.851 156.586 41.163C156.829 41.4663 157.015 41.7783 157.145 42.099C157.275 42.411 157.34 42.697 157.34 42.957C157.34 43.295 157.241 43.6677 157.041 44.075C156.842 44.4737 156.556 44.8507 156.183 45.206C155.819 45.5613 155.382 45.856 154.87 46.09C154.359 46.3153 153.791 46.428 153.167 46.428ZM153.687 45.18C154.303 45.18 154.866 45.0023 155.377 44.647C155.897 44.2917 156.361 43.724 156.768 42.944C156.361 42.1467 155.897 41.5747 155.377 41.228C154.866 40.8727 154.303 40.695 153.687 40.695C153.185 40.695 152.756 40.7903 152.4 40.981C152.045 41.1717 151.772 41.436 151.581 41.774C151.399 42.112 151.308 42.502 151.308 42.944C151.308 43.3773 151.399 43.763 151.581 44.101C151.772 44.439 152.045 44.7033 152.4 44.894C152.756 45.0847 153.185 45.18 153.687 45.18ZM168.069 47.182C167.211 47.182 166.448 47.0217 165.781 46.701C165.114 46.3717 164.589 45.9167 164.208 45.336C163.827 44.7553 163.636 44.0793 163.636 43.308C163.636 42.5453 163.814 41.878 164.169 41.306C164.533 40.7253 165.031 40.2747 165.664 39.954C166.305 39.6247 167.038 39.46 167.861 39.46C168.684 39.46 169.395 39.6463 169.993 40.019C170.6 40.383 171.068 40.8987 171.397 41.566C171.726 42.2333 171.891 43.0177 171.891 43.919H164.962V42.632H171.046L170.201 43.113C170.175 42.6277 170.058 42.2117 169.85 41.865C169.651 41.5183 169.378 41.254 169.031 41.072C168.693 40.8813 168.29 40.786 167.822 40.786C167.328 40.786 166.895 40.8857 166.522 41.085C166.158 41.2843 165.872 41.566 165.664 41.93C165.456 42.2853 165.352 42.71 165.352 43.204C165.352 43.75 165.473 44.2223 165.716 44.621C165.967 45.0197 166.318 45.3273 166.769 45.544C167.228 45.752 167.77 45.856 168.394 45.856C168.957 45.856 169.534 45.7693 170.123 45.596C170.712 45.414 171.232 45.1627 171.683 44.842V46.064C171.232 46.4107 170.682 46.6837 170.032 46.883C169.391 47.0823 168.736 47.182 168.069 47.182ZM176.831 39.642H178.521L178.963 42.294V47H177.273V42.047L176.831 39.642ZM181.888 39.46C182.581 39.46 183.17 39.5987 183.656 39.876C184.141 40.1533 184.509 40.552 184.761 41.072C185.021 41.5833 185.151 42.203 185.151 42.931V47H183.461V43.204C183.461 42.4327 183.279 41.852 182.915 41.462C182.559 41.0633 182.035 40.864 181.342 40.864C180.865 40.864 180.445 40.9723 180.081 41.189C179.725 41.397 179.448 41.6917 179.249 42.073C179.058 42.4543 178.963 42.9007 178.963 43.412L178.365 43.087C178.443 42.3243 178.642 41.6743 178.963 41.137C179.283 40.5997 179.695 40.188 180.198 39.902C180.7 39.6073 181.264 39.46 181.888 39.46ZM198.868 44.101C198.781 44.7077 198.543 45.245 198.153 45.713C197.763 46.1723 197.264 46.532 196.658 46.792C196.051 47.052 195.375 47.182 194.63 47.182C193.78 47.182 193.031 47.0217 192.381 46.701C191.739 46.3717 191.237 45.9167 190.873 45.336C190.509 44.7553 190.327 44.0837 190.327 43.321C190.327 42.5583 190.509 41.8867 190.873 41.306C191.237 40.7253 191.739 40.2747 192.381 39.954C193.031 39.6247 193.78 39.46 194.63 39.46C195.375 39.46 196.051 39.59 196.658 39.85C197.264 40.11 197.763 40.474 198.153 40.942C198.543 41.4013 198.781 41.9387 198.868 42.554H197.165C197.043 41.9993 196.753 41.566 196.294 41.254C195.834 40.942 195.28 40.786 194.63 40.786C194.11 40.786 193.655 40.89 193.265 41.098C192.875 41.2973 192.571 41.5877 192.355 41.969C192.147 42.3417 192.043 42.7923 192.043 43.321C192.043 43.841 192.147 44.2917 192.355 44.673C192.571 45.0543 192.875 45.349 193.265 45.557C193.655 45.7563 194.11 45.856 194.63 45.856C195.288 45.856 195.847 45.6957 196.307 45.375C196.766 45.0543 197.052 44.6297 197.165 44.101H198.868ZM205.475 49.327C205.042 49.327 204.647 49.2707 204.292 49.158C203.945 49.054 203.62 48.9067 203.317 48.716V47.429C203.646 47.637 203.958 47.7887 204.253 47.884C204.556 47.9793 204.894 48.027 205.267 48.027C205.622 48.027 205.939 47.9447 206.216 47.78C206.493 47.624 206.723 47.3467 206.905 46.948L210.22 39.642H212.014L208.205 47.52C207.997 47.9533 207.75 48.3 207.464 48.56C207.187 48.8287 206.879 49.0237 206.541 49.145C206.212 49.2663 205.856 49.327 205.475 49.327ZM206.32 46.766L202.94 39.642H204.799L207.997 46.766H206.32Z" fill="#DFDFDF"/>
<circle cx="219" cy="9" r="8.5" stroke="#DFDFDF"/>
<path d="M216.95 8.83H219.84C220.22 8.83 220.52 8.74333 220.74 8.57C220.967 8.39 221.08 8.14333 221.08 7.83C221.08 7.51667 220.967 7.27333 220.74 7.1C220.52 6.92667 220.22 6.84 219.84 6.84H216.7L217.47 5.97V13H215.77V5.5H220.04C220.587 5.5 221.067 5.6 221.48 5.8C221.893 5.99333 222.217 6.26333 222.45 6.61C222.683 6.95667 222.8 7.36333 222.8 7.83C222.8 8.29 222.683 8.69333 222.45 9.04C222.217 9.38667 221.893 9.66 221.48 9.86C221.067 10.0533 220.587 10.15 220.04 10.15H216.95V8.83ZM218.25 9.49H220.19L223.02 13H221.03L218.25 9.49Z" fill="#DFDFDF"/>
<path d="M194.118 26.5429C191.7 26.5429 189.533 26.1104 187.618 25.2455C185.726 24.3572 184.23 23.1182 183.129 21.5286C182.051 19.939 181.513 18.0922 181.513 15.9884C181.513 13.9078 182.027 12.0845 183.057 10.5182C184.11 8.95199 185.547 7.73641 187.367 6.87147C189.186 5.98316 191.257 5.539 193.579 5.539C195.95 5.539 197.985 6.05329 199.685 7.08186C201.385 8.08706 202.689 9.51303 203.599 11.3598C204.533 13.2065 205 15.3806 205 17.8819H186.325V13.9897H201.768L199.433 15.3922C199.338 14.2234 199.038 13.2299 198.535 12.4117C198.057 11.5935 197.398 10.9624 196.56 10.5182C195.722 10.0741 194.741 9.85199 193.615 9.85199C192.394 9.85199 191.329 10.0974 190.419 10.5884C189.533 11.0559 188.839 11.7221 188.336 12.5871C187.857 13.4286 187.618 14.4221 187.618 15.5676C187.618 16.9468 187.929 18.1273 188.552 19.1091C189.174 20.091 190.084 20.839 191.281 21.3533C192.478 21.8676 193.927 22.1247 195.627 22.1247C197.159 22.1247 198.703 21.9143 200.259 21.4935C201.816 21.0494 203.216 20.4299 204.461 19.6351V23.5624C203.12 24.4974 201.552 25.2338 199.757 25.7715C197.985 26.2858 196.105 26.5429 194.118 26.5429Z" fill="white"/>
<path d="M139.326 6.42441H145.323L146.616 14.0335V26.3764H140.619V13.1569L139.326 6.42441ZM153.906 5.89844C155.726 5.89844 157.282 6.28415 158.575 7.05558C159.868 7.80363 160.85 8.87896 161.52 10.2816C162.214 11.6842 162.561 13.3556 162.561 15.2958V26.3764H156.564V16.1725C156.564 14.3725 156.157 13.0166 155.343 12.1049C154.553 11.1699 153.392 10.7023 151.859 10.7023C150.782 10.7023 149.848 10.9595 149.058 11.4738C148.268 11.9647 147.658 12.6543 147.227 13.5426C146.82 14.4309 146.616 15.4945 146.616 16.7335L144.641 15.7166C144.88 13.6127 145.431 11.8361 146.293 10.3867C147.155 8.9374 148.232 7.82701 149.525 7.05558C150.842 6.28415 152.302 5.89844 153.906 5.89844ZM169.816 5.89844C171.635 5.89844 173.192 6.28415 174.485 7.05558C175.801 7.80363 176.795 8.87896 177.465 10.2816C178.16 11.6842 178.507 13.3556 178.507 15.2958V26.3764H172.509V16.1725C172.509 14.3725 172.102 13.0166 171.288 12.1049C170.498 11.1699 169.337 10.7023 167.805 10.7023C166.727 10.7023 165.794 10.9595 165.004 11.4738C164.213 11.9647 163.603 12.6543 163.172 13.5426C162.765 14.4309 162.561 15.4945 162.561 16.7335L160.586 15.7166C160.826 13.6127 161.376 11.8361 162.238 10.3867C163.1 8.9374 164.178 7.82701 165.47 7.05558C166.787 6.28415 168.236 5.89844 169.816 5.89844Z" fill="white"/>
<path d="M106.009 4.91534H125.465C131.437 4.91534 136.279 9.75684 136.279 15.7291C136.279 21.7014 131.437 26.5429 125.465 26.5429H106.009C100.036 26.5429 95.1948 21.7014 95.1948 15.7291C95.1948 9.75684 100.036 4.91534 106.009 4.91534Z" stroke="white"/>
<path d="M107.105 9.83072H124.368C127.626 9.83072 130.267 12.4715 130.267 15.7291C130.267 18.9868 127.626 21.6276 124.368 21.6276H107.105C103.848 21.6276 101.207 18.9868 101.207 15.7291C101.207 12.4715 103.848 9.83072 107.105 9.83072Z" fill="#F4CB0A"/>
<path d="M92.2292 20.0997C92.2292 21.5257 91.7983 22.753 90.9364 23.7816C90.0984 24.8101 88.8414 25.5932 87.1655 26.1309C85.4895 26.6452 83.4425 26.9023 81.0243 26.9023C78.5344 26.9023 76.3676 26.6101 74.5241 26.0257C72.6805 25.4179 71.244 24.5647 70.2145 23.466C69.185 22.3673 68.6343 21.0932 68.5625 19.6439H74.6677C74.8114 20.2984 75.1705 20.8712 75.7451 21.3621C76.3197 21.8296 77.0619 22.1919 77.9717 22.4491C78.9055 22.7062 79.9829 22.8348 81.2039 22.8348C82.9038 22.8348 84.1847 22.6478 85.0466 22.2738C85.9325 21.8997 86.3754 21.3387 86.3754 20.5906C86.3754 20.053 86.0641 19.6439 85.4417 19.3634C84.8431 19.0829 83.7298 18.8725 82.1017 18.7322L78.2949 18.4517C76.0204 18.2647 74.2128 17.8906 72.8721 17.3296C71.5313 16.7686 70.5736 16.0673 69.999 15.2257C69.4484 14.3608 69.173 13.414 69.173 12.3855C69.173 10.9595 69.6279 9.76727 70.5377 8.80883C71.4475 7.85039 72.7164 7.12571 74.3445 6.6348C75.9965 6.14389 77.8999 5.89844 80.0547 5.89844C82.2574 5.89844 84.2206 6.19065 85.9444 6.77506C87.6683 7.35948 89.0449 8.16597 90.0744 9.19454C91.1279 10.2231 91.7264 11.4153 91.8701 12.7712H85.7649C85.6691 12.2803 85.3938 11.8244 84.9389 11.4036C84.5079 10.9595 83.8735 10.5971 83.0355 10.3166C82.1975 10.0361 81.1081 9.89584 79.7674 9.89584C78.259 9.89584 77.0978 10.0712 76.2838 10.4218C75.4698 10.7491 75.0628 11.2517 75.0628 11.9296C75.0628 12.3971 75.3142 12.7829 75.8169 13.0868C76.3197 13.3673 77.2535 13.566 78.6182 13.6829L83.5742 14.0686C85.7768 14.2556 87.5126 14.6179 88.7816 15.1556C90.0505 15.6699 90.9364 16.3478 91.4391 17.1893C91.9659 18.0309 92.2292 19.001 92.2292 20.0997Z" fill="white"/>
<path d="M59.5586 0H65.5561V27H59.5586V0Z" fill="white"/>
<path d="M50.3396 26.3764L49.4776 19.0829L50.4473 16.4179L49.4776 13.788L50.3396 6.42441H56.5525L55.3674 16.4179L56.5525 26.3764H50.3396ZM51.9197 16.4179C51.5367 18.5218 50.8304 20.3686 49.8009 21.9582C48.7953 23.5244 47.5144 24.74 45.9582 25.6049C44.4259 26.4699 42.702 26.9023 40.7867 26.9023C38.7995 26.9023 37.0397 26.4699 35.5074 25.6049C33.9752 24.7166 32.7781 23.4893 31.9161 21.9231C31.0782 20.3335 30.6592 18.4984 30.6592 16.4179C30.6592 14.314 31.0782 12.479 31.9161 10.9127C32.7781 9.32311 33.9752 8.09584 35.5074 7.23091C37.0397 6.34259 38.7995 5.89844 40.7867 5.89844C42.702 5.89844 44.4259 6.33091 45.9582 7.19584C47.5144 8.06078 48.8073 9.28805 49.8368 10.8777C50.8663 12.4439 51.5606 14.2906 51.9197 16.4179ZM36.7285 16.4179C36.7285 17.5868 36.9679 18.6153 37.4468 19.5036C37.9495 20.3919 38.6319 21.0932 39.4938 21.6075C40.3557 22.0984 41.3493 22.3439 42.4746 22.3439C43.5999 22.3439 44.6533 22.0984 45.6349 21.6075C46.6405 21.0932 47.5264 20.3919 48.2925 19.5036C49.0587 18.6153 49.6572 17.5868 50.0882 16.4179C49.6572 15.2491 49.0587 14.2205 48.2925 13.3322C47.5264 12.4205 46.6405 11.7192 45.6349 11.2283C44.6533 10.714 43.5999 10.4569 42.4746 10.4569C41.3493 10.4569 40.3557 10.714 39.4938 11.2283C38.6319 11.7192 37.9495 12.4205 37.4468 13.3322C36.9679 14.2205 36.7285 15.2491 36.7285 16.4179Z" fill="white"/>
<path d="M0 0H6.10522V26.2987H0V0ZM21.5479 0H27.6531V26.2987H21.5479V0ZM3.33992 10.3792H24.2413V15.6039H3.33992V10.3792Z" fill="white"/>
</svg>
